<?xml version="1.0" standalone="no"?>
<!DOCTYPE svg PUBLIC "-//W3C//DTD SVG 20010904//EN"
 "http://www.w3.org/TR/2001/REC-SVG-20010904/DTD/svg10.dtd">
<svg version="1.0" xmlns="http://www.w3.org/2000/svg"
 width="1084.000000pt" height="1084.000000pt" viewBox="0 0 1084.000000 1084.000000"
 preserveAspectRatio="xMidYMid meet">
<metadata>
Created by potrace 1.14, written by Peter Selinger 2001-2017
</metadata>
<g transform="translate(0.000000,1084.000000) scale(0.100000,-0.100000)"
fill="#000000" stroke="none">
<path d="M3590 8969 c0 -7 -11 -9 -26 -6 l-26 5 4 -184 3 -184 -180 -1 c-114
-1 -167 -5 -145 -10 30 -6 26 -7 -23 -6 l-57 2 0 -750 c0 -412 0 -850 0 -972
l0 -223 -190 0 -190 0 0 -190 0 -190 -175 0 c-122 0 -175 -3 -175 -11 0 -7
-11 -9 -26 -6 l-26 5 4 -183 c1 -101 7 -187 11 -192 5 -4 179 -9 388 -11 338
-2 379 0 379 14 0 9 5 12 11 8 6 -4 106 -7 222 -8 116 0 199 -4 186 -7 -13 -4
-113 -7 -221 -8 l-198 -1 0 -580 0 -580 -190 0 -190 0 0 -590 0 -590 190 0
190 0 0 -1750 0 -1750 200 0 200 0 0 1950 0 1950 -200 0 -200 0 0 390 0 390
200 0 200 0 0 580 0 580 558 0 c306 0 984 1 1505 1 606 0 946 3 942 9 -4 6 8
10 27 10 25 0 29 -3 18 -10 -10 -6 64 -10 218 -10 l232 0 0 -2140 0 -2140
-190 0 -190 0 0 -190 0 -190 -200 0 -200 0 0 -200 0 -200 -580 0 -580 0 0 200
0 200 -200 0 -200 0 0 -590 0 -590 200 0 200 0 0 190 0 190 580 0 580 0 0 200
0 200 200 0 200 0 0 200 0 200 190 0 190 0 0 190 0 190 200 0 200 0 0 2140 0
2140 391 0 391 0 -4 188 c-2 103 -7 193 -11 200 -6 9 -57 12 -198 12 l-189 0
0 190 0 190 -189 0 -189 0 -8 453 c-5 248 -11 427 -15 397 -3 -30 -6 112 -6
315 0 204 3 354 7 335 5 -20 8 68 7 199 -2 178 -5 235 -15 239 -6 2 -10 8 -6
13 3 5 -71 9 -180 9 -175 0 -185 1 -191 20 -3 11 -12 19 -18 17 -7 -1 -12 6
-11 16 0 9 2 68 3 130 2 73 6 103 11 87 l8 -25 1 27 c1 15 -3 29 -9 33 -5 3
-7 12 -3 20 3 9 0 21 -6 29 -6 7 -8 16 -4 19 3 4 -764 7 -1705 7 -1254 0
-1712 -3 -1712 -11z m592 -6 c-40 -2 -103 -2 -140 0 -37 2 -4 3 73 3 77 0 107
-2 67 -3z m416 0 c-42 -2 -114 -2 -160 0 -46 1 -11 3 77 3 88 0 125 -2 83 -3z
m1175 0 c-45 -2 -122 -2 -170 0 -48 1 -11 3 82 3 94 0 133 -2 88 -3z m749 0
c-40 -2 -103 -2 -140 0 -37 2 -4 3 73 3 77 0 107 -2 67 -3z m143 -429 c4 -36
5 -120 4 -187 -2 -67 0 -128 4 -134 6 -10 55 -13 188 -13 l179 0 0 -37 c0 -21
2 -282 3 -580 l2 -543 -392 0 -393 0 0 -390 0 -390 -580 0 -580 0 0 390 0 390
-795 0 c-553 0 -795 3 -795 11 0 5 4 8 9 5 5 -3 12 1 15 10 3 9 6 267 6 575
l0 559 570 0 c553 0 570 1 580 19 6 12 10 95 10 200 l0 181 968 2 c532 2 972
2 978 0 7 -2 15 -33 19 -68z m453 49 c-10 -2 -26 -2 -35 0 -10 3 -2 5 17 5 19
0 27 -2 18 -5z m780 -2340 c-10 -2 -28 -2 -40 0 -13 2 -5 4 17 4 22 1 32 -1
23 -4z m-4465 -10 c-51 -2 -136 -2 -190 0 -54 1 -12 3 92 3 105 0 149 -2 98
-3z m1159 0 c-51 -2 -132 -2 -180 0 -48 1 -6 3 93 3 99 0 138 -2 87 -3z m1980
0 c-40 -2 -103 -2 -140 0 -37 2 -4 3 73 3 77 0 107 -2 67 -3z m1185 1 c-3 -3
-12 -4 -19 -1 -8 3 -5 6 6 6 11 1 17 -2 13 -5z"/>
<path d="M5480 6840 l0 -200 200 0 200 0 0 200 0 200 -200 0 -200 0 0 -200z"/>
<path d="M4320 4500 l0 -200 190 0 190 0 0 200 0 200 -190 0 -190 0 0 -200z"/>
<path d="M6260 4500 l0 -200 200 0 200 0 0 200 0 200 -200 0 -200 0 0 -200z"/>
<path d="M5480 3340 l0 -200 390 0 390 0 0 200 0 200 -390 0 -390 0 0 -200z"/>
<path d="M5100 2160 l0 -200 580 0 580 0 0 200 0 200 -580 0 -580 0 0 -200z"/>
</g>
</svg>
